<svg width="765" height="499" viewBox="0 0 765 499" fill="none" xmlns="http://www.w3.org/2000/svg">
<g clipPath="url(#clip0_231_168)">
<path d="M756.71 327.072H224.914C222.733 327.069 220.642 326.152 219.099 324.52C217.557 322.889 216.689 320.677 216.687 318.369V8.88585C216.689 6.5786 217.557 4.3666 219.099 2.73513C220.642 1.10366 222.733 0.185957 224.914 0.18335H756.71C758.891 0.185962 760.983 1.10367 762.525 2.73514C764.067 4.36661 764.935 6.57861 764.937 8.88585V318.369C764.935 320.677 764.067 322.889 762.525 324.52C760.983 326.152 758.891 327.069 756.71 327.072Z" fill="#E6E6E6"/>
<path d="M745.491 315.205H236.134C233.952 315.202 231.861 314.285 230.319 312.653C228.776 311.022 227.909 308.81 227.906 306.502V20.7529C227.909 18.4457 228.776 16.2337 230.319 14.6022C231.861 12.9707 233.952 12.053 236.134 12.0504H745.491C747.672 12.053 749.763 12.9707 751.306 14.6022C752.848 16.2337 753.716 18.4457 753.718 20.7529V306.502C753.716 308.81 752.848 311.022 751.306 312.653C749.763 314.285 747.672 315.202 745.491 315.205Z" fill="white"/>
<path d="M378.663 188.363H282.836C281.777 188.361 280.763 187.916 280.014 187.124C279.266 186.333 278.845 185.259 278.843 184.139V78.5772C278.845 77.4575 279.266 76.3841 280.014 75.5923C280.763 74.8006 281.777 74.3552 282.836 74.3539H378.663C379.722 74.3552 380.737 74.8006 381.485 75.5923C382.234 76.3841 382.655 77.4575 382.656 78.5772V184.139C382.655 185.259 382.234 186.333 381.485 187.124C380.737 187.916 379.722 188.361 378.663 188.363ZM282.836 76.0432C282.201 76.0439 281.592 76.3112 281.143 76.7862C280.694 77.2613 280.441 77.9054 280.44 78.5772V184.139C280.441 184.811 280.694 185.455 281.143 185.93C281.592 186.406 282.201 186.673 282.836 186.673H378.663C379.299 186.673 379.908 186.406 380.357 185.93C380.806 185.455 381.058 184.811 381.059 184.139V78.5772C381.058 77.9054 380.806 77.2613 380.357 76.7862C379.908 76.3111 379.299 76.0439 378.663 76.0432H282.836Z" fill="#3F3D56"/>
<path d="M538.726 188.363H442.898C441.84 188.361 440.825 187.916 440.076 187.124C439.328 186.333 438.907 185.259 438.906 184.139V78.5772C438.907 77.4575 439.328 76.3841 440.076 75.5923C440.825 74.8006 441.84 74.3552 442.898 74.3539H538.726C539.784 74.3552 540.799 74.8006 541.548 75.5923C542.296 76.3841 542.717 77.4575 542.719 78.5772V184.139C542.717 185.259 542.296 186.333 541.548 187.124C540.799 187.916 539.784 188.361 538.726 188.363ZM442.898 76.0432C442.263 76.044 441.654 76.3112 441.205 76.7862C440.756 77.2613 440.503 77.9054 440.503 78.5772V184.139C440.503 184.811 440.756 185.455 441.205 185.93C441.654 186.406 442.263 186.673 442.898 186.673H538.726C539.361 186.673 539.97 186.406 540.419 185.93C540.868 185.455 541.121 184.811 541.121 184.139V78.5772C541.121 77.9054 540.868 77.2613 540.419 76.7862C539.97 76.3112 539.361 76.044 538.726 76.0432H442.898Z" fill="#3F3D56"/>
<path d="M698.788 188.363H602.961C601.902 188.361 600.887 187.916 600.139 187.124C599.39 186.333 598.969 185.259 598.968 184.139V78.5772C598.969 77.4575 599.39 76.3841 600.139 75.5923C600.887 74.8006 601.902 74.3552 602.961 74.3539H698.788C699.847 74.3552 700.862 74.8006 701.61 75.5923C702.359 76.3841 702.78 77.4575 702.781 78.5772V184.139C702.78 185.259 702.359 186.333 701.61 187.124C700.862 187.916 699.847 188.361 698.788 188.363ZM602.961 76.0432C602.325 76.0439 601.717 76.3111 601.267 76.7862C600.818 77.2613 600.566 77.9054 600.565 78.5772V184.139C600.566 184.811 600.818 185.455 601.267 185.93C601.717 186.406 602.325 186.673 602.961 186.673H698.788C699.423 186.673 700.032 186.406 700.481 185.931C700.93 185.455 701.183 184.811 701.184 184.139V78.5772C701.183 77.9054 700.93 77.2613 700.481 76.7862C700.032 76.3111 699.423 76.0439 698.788 76.0432H602.961Z" fill="#3F3D56"/>
<path d="M312.245 252.901C312.601 252.901 312.954 252.827 313.283 252.683C313.612 252.54 313.911 252.328 314.163 252.062C314.414 251.796 314.614 251.48 314.751 251.132C314.887 250.785 314.957 250.412 314.957 250.035C314.957 249.659 314.887 249.286 314.751 248.938C314.615 248.59 314.416 248.274 314.164 248.007C313.913 247.741 313.614 247.53 313.285 247.385C312.956 247.241 312.604 247.167 312.248 247.167H287.922C287.203 247.167 286.514 247.469 286.005 248.007C285.497 248.544 285.211 249.274 285.211 250.034C285.211 250.794 285.497 251.524 286.005 252.061C286.514 252.599 287.203 252.901 287.922 252.901H312.245Z" fill="#E6E6E6"/>
<path d="M373.578 236.008C374.297 236.009 374.987 235.709 375.496 235.172C376.005 234.635 376.292 233.907 376.293 233.146C376.295 232.386 376.01 231.656 375.503 231.117C374.996 230.578 374.307 230.275 373.588 230.274H287.922C287.204 230.275 286.516 230.578 286.008 231.115C285.501 231.653 285.216 232.381 285.216 233.141C285.216 233.9 285.501 234.629 286.008 235.167C286.516 235.704 287.204 236.007 287.922 236.008H373.578Z" fill="#E6E6E6"/>
<path d="M472.308 252.901C473.027 252.901 473.716 252.599 474.225 252.061C474.733 251.524 475.018 250.794 475.018 250.034C475.018 249.274 474.733 248.544 474.225 248.007C473.716 247.469 473.027 247.167 472.308 247.167H447.984C447.265 247.167 446.576 247.469 446.067 248.007C445.559 248.544 445.273 249.274 445.273 250.034C445.273 250.794 445.559 251.524 446.067 252.061C446.576 252.599 447.265 252.901 447.984 252.901H472.308Z" fill="#E6E6E6"/>
<path d="M533.64 236.008C534.358 236.007 535.046 235.704 535.554 235.167C536.061 234.629 536.346 233.9 536.346 233.141C536.346 232.381 536.061 231.653 535.554 231.115C535.046 230.578 534.358 230.275 533.64 230.274H447.984C447.266 230.275 446.578 230.578 446.07 231.115C445.563 231.653 445.278 232.381 445.278 233.141C445.278 233.9 445.563 234.629 446.07 235.167C446.578 235.704 447.266 236.007 447.984 236.008H533.64Z" fill="#E6E6E6"/>
<path d="M632.37 252.901C633.089 252.901 633.778 252.599 634.287 252.061C634.795 251.524 635.081 250.794 635.081 250.034C635.081 249.274 634.795 248.544 634.287 248.007C633.778 247.469 633.089 247.167 632.37 247.167H608.046C607.69 247.167 607.338 247.241 607.009 247.385C606.68 247.529 606.381 247.74 606.129 248.006C605.878 248.272 605.678 248.588 605.541 248.936C605.405 249.283 605.335 249.656 605.335 250.033C605.334 250.409 605.404 250.782 605.541 251.13C605.677 251.478 605.876 251.794 606.128 252.061C606.379 252.327 606.678 252.538 607.007 252.683C607.336 252.827 607.688 252.901 608.044 252.901H632.37Z" fill="#E6E6E6"/>
<path d="M693.702 236.008C694.42 236.007 695.109 235.704 695.616 235.167C696.123 234.629 696.408 233.9 696.408 233.141C696.408 232.381 696.123 231.653 695.616 231.115C695.109 230.578 694.42 230.275 693.702 230.274H608.046C607.69 230.273 607.338 230.346 607.009 230.49C606.68 230.633 606.38 230.844 606.128 231.11C605.876 231.375 605.676 231.691 605.539 232.039C605.402 232.386 605.331 232.759 605.331 233.136C605.33 233.512 605.4 233.885 605.535 234.233C605.671 234.581 605.87 234.898 606.121 235.165C606.372 235.431 606.671 235.643 607 235.788C607.328 235.933 607.681 236.007 608.036 236.008H693.702Z" fill="#E6E6E6"/>
<path d="M373.578 219.394C374.297 219.395 374.986 219.093 375.495 218.555C376.003 218.018 376.289 217.289 376.29 216.528C376.29 215.768 376.005 215.038 375.496 214.5C374.988 213.962 374.299 213.66 373.58 213.66H287.922C287.203 213.66 286.514 213.962 286.005 214.499C285.497 215.037 285.211 215.766 285.211 216.527C285.211 217.287 285.497 218.017 286.005 218.554C286.514 219.092 287.203 219.394 287.922 219.394H373.578Z" fill="#00C941"/>
<path d="M533.64 219.394C534.359 219.394 535.048 219.092 535.557 218.554C536.065 218.017 536.351 217.287 536.351 216.527C536.351 215.766 536.065 215.037 535.557 214.499C535.048 213.962 534.359 213.66 533.64 213.66H447.984C447.265 213.66 446.576 213.962 446.067 214.499C445.559 215.037 445.273 215.766 445.273 216.527C445.273 217.287 445.559 218.017 446.067 218.554C446.576 219.092 447.265 219.394 447.984 219.394H533.64Z" fill="#00C941"/>
<path d="M693.702 219.394C694.421 219.394 695.111 219.092 695.619 218.554C696.127 218.017 696.413 217.287 696.413 216.527C696.413 215.766 696.127 215.037 695.619 214.499C695.111 213.962 694.421 213.66 693.702 213.66H608.046C607.328 213.659 606.638 213.961 606.129 214.499C605.621 215.036 605.335 215.765 605.335 216.526C605.334 217.286 605.62 218.016 606.128 218.554C606.636 219.092 607.325 219.394 608.044 219.394H693.702Z" fill="#00C941"/>
<path d="M358.245 167.905C358.963 167.903 359.651 167.601 360.158 167.063C360.666 166.526 360.951 165.797 360.951 165.037C360.951 164.278 360.666 163.549 360.158 163.012C359.651 162.474 358.963 162.172 358.245 162.17H303.255C302.899 162.169 302.546 162.243 302.217 162.386C301.888 162.53 301.589 162.74 301.337 163.006C301.085 163.272 300.884 163.588 300.748 163.935C300.611 164.283 300.54 164.656 300.539 165.032C300.539 165.409 300.608 165.782 300.744 166.13C300.879 166.478 301.079 166.794 301.33 167.061C301.581 167.328 301.879 167.54 302.208 167.684C302.537 167.829 302.889 167.904 303.245 167.905H358.245Z" fill="#E6E6E6"/>
<path d="M358.245 151.011C358.963 151.01 359.651 150.707 360.158 150.17C360.666 149.632 360.951 148.904 360.951 148.144C360.951 147.385 360.666 146.656 360.158 146.118C359.651 145.581 358.963 145.278 358.245 145.277H303.255C302.899 145.276 302.546 145.35 302.217 145.493C301.888 145.637 301.589 145.847 301.337 146.113C301.085 146.379 300.884 146.694 300.748 147.042C300.611 147.39 300.54 147.762 300.539 148.139C300.539 148.515 300.608 148.888 300.744 149.237C300.879 149.585 301.079 149.901 301.33 150.168C301.581 150.435 301.879 150.646 302.208 150.791C302.537 150.936 302.889 151.011 303.245 151.011H358.245Z" fill="#E6E6E6"/>
<path d="M330.75 131.204C340.251 131.204 347.953 123.058 347.953 113.008C347.953 102.959 340.251 94.8121 330.75 94.8121C321.249 94.8121 313.547 102.959 313.547 113.008C313.547 123.058 321.249 131.204 330.75 131.204Z" fill="#00C941"/>
<path d="M518.307 167.905C519.025 167.903 519.713 167.601 520.221 167.063C520.728 166.526 521.013 165.797 521.013 165.037C521.013 164.278 520.728 163.549 520.221 163.012C519.713 162.474 519.025 162.171 518.307 162.17H463.317C462.599 162.171 461.911 162.474 461.404 163.012C460.896 163.549 460.611 164.278 460.611 165.037C460.611 165.797 460.896 166.526 461.404 167.063C461.911 167.601 462.599 167.903 463.317 167.905H518.307Z" fill="#E6E6E6"/>
<path d="M518.307 151.011C519.025 151.01 519.713 150.707 520.221 150.17C520.728 149.632 521.013 148.904 521.013 148.144C521.013 147.385 520.728 146.656 520.221 146.118C519.713 145.581 519.025 145.278 518.307 145.277H463.317C462.599 145.278 461.911 145.581 461.404 146.118C460.896 146.656 460.611 147.385 460.611 148.144C460.611 148.904 460.896 149.632 461.404 150.17C461.911 150.707 462.599 151.01 463.317 151.011H518.307Z" fill="#E6E6E6"/>
<path d="M490.812 131.204C500.313 131.204 508.015 123.058 508.015 113.008C508.015 102.959 500.313 94.8121 490.812 94.8121C481.311 94.8121 473.609 102.959 473.609 113.008C473.609 123.058 481.311 131.204 490.812 131.204Z" fill="#00C941"/>
<path d="M678.369 167.905C678.725 167.905 679.078 167.832 679.407 167.688C679.736 167.545 680.035 167.334 680.287 167.069C680.54 166.803 680.74 166.487 680.877 166.14C681.013 165.792 681.084 165.419 681.085 165.043C681.086 164.666 681.016 164.293 680.88 163.945C680.745 163.597 680.546 163.28 680.294 163.014C680.043 162.747 679.745 162.535 679.416 162.39C679.087 162.246 678.735 162.171 678.379 162.17H623.38C622.661 162.171 621.973 162.474 621.466 163.012C620.959 163.549 620.674 164.278 620.674 165.037C620.674 165.797 620.959 166.526 621.466 167.063C621.973 167.601 622.661 167.903 623.38 167.905H678.369Z" fill="#E6E6E6"/>
<path d="M678.369 151.011C678.725 151.012 679.078 150.939 679.407 150.795C679.736 150.652 680.035 150.441 680.287 150.175C680.54 149.91 680.74 149.594 680.877 149.246C681.013 148.899 681.084 148.526 681.085 148.149C681.086 147.773 681.016 147.4 680.88 147.052C680.745 146.704 680.546 146.387 680.294 146.12C680.043 145.854 679.745 145.642 679.416 145.497C679.087 145.352 678.735 145.278 678.379 145.277H623.38C622.661 145.278 621.973 145.581 621.466 146.118C620.959 146.656 620.674 147.385 620.674 148.144C620.674 148.904 620.959 149.632 621.466 150.17C621.973 150.707 622.661 151.01 623.38 151.011H678.369Z" fill="#E6E6E6"/>
<path d="M650.874 131.204C660.375 131.204 668.077 123.058 668.077 113.008C668.077 102.959 660.375 94.8121 650.874 94.8121C641.373 94.8121 633.671 102.959 633.671 113.008C633.671 123.058 641.373 131.204 650.874 131.204Z" fill="#00C941"/>
<path d="M58.551 486.911H68.7289L73.5704 445.388L58.5494 445.389L58.551 486.911Z" fill="#FFB6B6"/>
<path d="M55.9547 483.397L75.9982 483.396C79.3858 483.396 82.6355 484.82 85.0309 487.353C87.4264 489.887 88.7722 493.323 88.7724 496.907V497.346L55.9553 497.347L55.9547 483.397Z" fill="#2F2E41"/>
<path d="M93.418 486.911H103.596L108.437 445.388L93.4164 445.389L93.418 486.911Z" fill="#FFB6B6"/>
<path d="M90.8217 483.397L110.865 483.396H110.866C114.254 483.396 117.503 484.82 119.898 487.353C122.293 489.887 123.639 493.323 123.639 496.907V497.346L90.8223 497.347L90.8217 483.397Z" fill="#2F2E41"/>
<path d="M132.093 306.022L107.23 468.456L90.627 467.578L91.0388 318.429L132.093 306.022Z" fill="#2F2E41"/>
<path d="M65.0658 256.394L125.39 257.28L132.093 306.022L91.0389 326.405L73.1937 464.066L57.4205 463.188L51.6603 292.729L65.0658 256.394Z" fill="#2F2E41"/>
<path d="M101.093 130.552C111.273 130.552 119.525 121.823 119.525 111.055C119.525 100.287 111.273 91.5581 101.093 91.5581C90.913 91.5581 82.6605 100.287 82.6605 111.055C82.6605 121.823 90.913 130.552 101.093 130.552Z" fill="#FFB9B9"/>
<path d="M109.721 141.804L120.364 156.252L115.336 267.028L75.958 266.142L69.2552 169.545L77.6332 144.731L80.665 139.17L109.721 141.804Z" fill="#E4E4E4"/>
<path d="M127.904 197.904L137.12 235.125L127.904 272.346L142.985 293.615L156.391 226.263C156.391 226.263 146.336 171.317 145.499 165.114C144.661 158.91 142.985 158.024 142.985 158.024L136.282 158.91L127.904 197.904Z" fill="#2F2E41"/>
<path d="M60.8772 212.083L55.012 223.604L53.3359 243.101L56.6873 265.256L44.9579 285.639L33.2285 229.807L45.7955 158.024H50.823L60.8772 212.083Z" fill="#2F2E41"/>
<path d="M85.1522 116.105L84.7155 123.986C84.7155 123.986 79.3091 111.055 78.4713 97.7616C77.6334 84.4684 91.8767 81.8097 100.255 80.9235C108.634 80.0373 122.877 86.2408 122.877 93.3305C122.877 100.42 107.796 98.6478 101.931 96.8754C96.066 95.103 93.5525 110.169 93.5525 110.169L90.2011 111.055L85.1522 116.105Z" fill="#2F2E41"/>
<path d="M130.417 210.311L127.066 243.987L133.769 264.37L137.958 283.866C137.958 283.866 137.958 302.477 121.201 303.363C104.444 304.249 55.8496 302.477 55.8496 302.477C55.8496 302.477 49.1469 301.591 43.282 287.411C37.4171 273.232 55.0118 259.939 55.0118 259.939L60.0389 241.328L58.3632 218.287L46.6333 158.024L81.4037 138.97L90.201 229.807L109.052 141.629L115.336 146.503L142.147 158.024L130.417 210.311Z" fill="#2F2E41"/>
<path d="M214.903 498.183H0.937439V496.334H215.22L214.903 498.183Z" fill="#3F3D56"/>
</g>
<defs>
<clipPath id="clip0_231_168">
<rect width="764" height="498" fill="white" transform="translate(0.937439 0.18335)"/>
</clipPath>
</defs>
</svg>
