<svg width="688" height="447" viewBox="0 0 688 447" fill="none" xmlns="http://www.w3.org/2000/svg">
<g clipPath="url(#clip0_279_138)">
<path d="M405.548 354.072L141.475 650.723C140.798 647.737 139.781 644.85 139.781 641.58V118.42C139.781 114.45 140.891 110.862 141.9 107.258L405.548 354.072ZM910.855 82.3812C908.92 81.9484 907.067 81.0125 904.933 81.0125H173.092C171.066 81.0125 169.255 81.9484 167.203 82.3812L539.017 430.403L910.855 82.3812ZM549.638 469.095C546.584 472.016 542.806 473.434 539.017 473.434C535.237 473.434 531.452 472.016 528.431 469.095L431.228 378.131L165.025 677.101C167.678 677.919 170.281 678.987 173.092 678.987H904.933C907.886 678.987 910.455 677.919 913.125 677.101L646.941 378.131L549.638 469.095ZM672.584 354.072L936.616 650.691C937.333 647.705 938.217 644.817 938.217 641.58V118.42C938.217 114.516 937.248 110.862 936.248 107.275L672.584 354.072Z" fill="black"/>
</g>
<path d="M251 96L255 80.875L237 74L235 87.75L251 96Z" fill="#A0616A"/>
<path opacity="0.1" d="M251.227 97L255 81.6727L245 77L248.107 95.0694L251.227 97Z" fill="black"/>
<path d="M340.747 176.609C342.88 173.124 340.346 167.47 335.087 163.979C332.785 162.452 330.342 161.592 328.145 161.401L325.096 159.433L284.835 131.039C284.835 131.039 257.555 98.6503 251.606 96.1248C245.657 93.5992 240.72 97.5201 240.72 97.5201L238.048 104.529L280.827 148.23L317.23 168.287L322.187 171.136C323.282 173.13 325.061 175.072 327.364 176.6C332.622 180.09 338.614 180.094 340.747 176.609Z" fill="#A0616A"/>
<path d="M236.97 80.8176C236.97 80.8176 230.11 84.0769 228.498 91.7472C226.886 99.4176 278.807 149.097 278.807 149.097L296.599 138.925L236.97 80.8176Z" fill="#E6E6E6"/>
<path d="M269 65C269 75.4934 260.717 84 250.5 84C240.283 84 232 75.4934 232 65C232 54.5066 240.283 46 250.5 46C260.717 46 269 54.5066 269 65Z" fill="#A0616A"/>
<path d="M294 345.365L306.294 377L313.412 369.596L316 355.462L305.647 342L294 345.365Z" fill="#A0616A"/>
<path d="M222.435 338L217 357.177L227.007 366L238 358.514L236.566 338.074L222.435 338Z" fill="#A0616A"/>
<path d="M259.347 152L261 180L220 172.395L222.645 155.111L259.347 152Z" fill="#A0616A"/>
<path d="M261.885 181.099L220.407 167C220.407 167 205.143 198.636 221.734 218.58C238.326 238.524 293.409 352 293.409 352L310 343.747L286.109 271.535L259.563 204.825L261.885 181.099Z" fill="#2F2E41"/>
<path d="M215 203L228.519 275.834L220.139 340.825L239.651 343L256 262.969L250.108 209.937L215 203Z" fill="#2F2E41"/>
<path d="M321.755 352.455H333.173C333.173 352.455 346.496 346.932 349.618 352.455C352.741 357.978 335.687 373.643 335.687 373.643C335.687 373.643 311.867 387.666 308.57 386.975C305.274 386.285 303.956 378 303.956 378L300 368.334L305.933 370.405C305.933 370.405 313.844 365.573 311.867 357.288L321.755 352.455Z" fill="#2F2E41"/>
<path d="M219.608 358.363L216.914 352L212.555 361.648C212.555 361.648 202.689 371.577 215.829 376.882C228.969 382.188 244.805 387 244.805 387C244.805 387 265.159 383.613 263.948 377.321C262.737 371.03 260.542 369.278 260.542 369.278L252.426 368.976L239.355 355.259L230.188 361.052L219.608 358.363Z" fill="#2F2E41"/>
<path d="M245.132 68.7294L251.102 68.0363L262.049 56.599C262.049 56.599 272 62.1444 272 57.9854C272 38.5767 260.722 39.2699 251.434 37.8836C242.146 36.4973 243.141 36.1507 240.156 41.3494C238.791 43.7269 233.854 45.1618 233.854 45.1618C233.854 45.1618 224.566 31.9917 219.922 47.9345C215.278 63.8773 221.249 113.092 216.605 117.251C211.961 121.41 235.673 125.563 233.104 109.277C230.536 92.9902 225.892 68.0363 228.546 62.491C231.2 56.9456 231.863 58.332 231.863 58.332C228.575 56.929 226.426 81.6402 238.825 82.8501L239.161 70.8089C239.161 70.8089 241.151 64.5705 245.132 68.7294Z" fill="#2F2E41"/>
<path d="M252.754 92.3L233.145 84L207 167L260.793 164.926L265.637 140.154C265.637 140.154 270.366 127.26 266.444 119.652C262.522 112.044 252.754 92.3 252.754 92.3Z" fill="#E6E6E6"/>
<path d="M201.399 231C205.353 231.354 208.991 226.396 209.524 219.925C209.758 217.093 209.358 214.441 208.503 212.324L208.765 208.598L214.275 158.288C214.275 158.288 224.533 117.134 223.926 110.474C223.319 103.814 222.361 102.046 222.361 102.046L215.159 102.828L197.789 162.554L197.586 205.442L197.458 211.336C196.268 213.27 195.44 215.812 195.206 218.645C194.673 225.115 197.445 230.647 201.399 231Z" fill="#A0616A"/>
<path d="M234.838 90.8476C234.838 90.8476 228.886 86.027 221.612 88.093C214.337 90.1589 196.115 161.091 196.115 161.091L213.015 172.798L234.838 90.8476Z" fill="#E6E6E6"/>
<path d="M632.448 73.4574L620.848 51.0229L604.691 64.3973L610.905 81.2232L632.448 73.4574Z" fill="#FFB6B6"/>
<path opacity="0.1" d="M632.448 73.4574L620.848 51.0229L604.691 64.3973L610.905 81.2232L632.448 73.4574Z" fill="black"/>
<path d="M604.733 65.0891C615.391 65.0891 624.031 56.0918 624.031 44.993C624.031 33.8943 615.391 24.897 604.733 24.897C594.075 24.897 585.436 33.8943 585.436 44.993C585.436 56.0918 594.075 65.0891 604.733 65.0891Z" fill="#FFB6B6"/>
<path d="M567.867 55.4604C566.331 49.7237 562.243 45.899 558.737 46.9177C555.232 47.9364 553.636 53.4121 555.173 59.1507C555.757 61.4518 556.862 63.5738 558.395 65.3392L565.199 89.5605L576.046 85.9933L568.187 62.4941C568.621 60.1566 568.511 57.7447 567.867 55.4604Z" fill="#FFB6B6"/>
<path d="M622.835 70.3189L587.701 97.7095L570.029 68.9965L558.362 68.793C558.362 68.793 559.938 116.528 576.215 120.561C592.493 124.594 637.195 101.973 638.743 87.9461C640.292 73.9191 622.835 70.3189 622.835 70.3189Z" fill="#E6E6E6"/>
<path d="M574.394 381.463L564.289 381.462L559.482 340.873L574.396 340.874L574.394 381.463Z" fill="#FFB6B6"/>
<path d="M539.773 381.225C539.458 381.777 539.292 383.558 539.292 384.199C539.292 386.172 540.828 387.771 542.722 387.771H574.016C575.308 387.771 576.355 386.68 576.355 385.334V383.978C576.355 383.978 577.904 379.9 574.716 374.874C574.716 374.874 570.755 378.809 564.836 372.645L563.09 369.352L550.455 378.975L543.452 379.873C541.92 380.069 540.561 379.842 539.773 381.225Z" fill="#2F2E41"/>
<path d="M606.032 381.463L595.927 381.462L591.12 340.873L606.034 340.874L606.032 381.463Z" fill="#FFB6B6"/>
<path d="M571.411 381.225C571.097 381.777 570.931 383.558 570.931 384.199C570.931 386.172 572.466 387.771 574.36 387.771H605.654C606.946 387.771 607.994 386.68 607.994 385.334V383.978C607.994 383.978 609.542 379.9 606.355 374.874C606.355 374.874 602.393 378.809 596.474 372.645L594.729 369.352L582.094 378.975L575.09 379.873C573.558 380.069 572.2 379.842 571.411 381.225Z" fill="#2F2E41"/>
<path d="M561.887 178.639L552.686 205.646L559.131 360.596L575.536 361.817L587.84 247.136L589.598 366.088L607.76 367.308L621.1 187.075C621.1 187.075 625.246 174.266 612.356 168.164C599.466 162.063 561.887 178.639 561.887 178.639Z" fill="#2F2E41"/>
<path d="M559.179 177.072L622.92 183.473C622.92 183.473 620.848 157.155 638.248 129.544C655.649 101.932 631.62 68.7117 631.62 68.7117L608.005 66.986L582.319 79.066L578.054 129.642L559.179 177.072Z" fill="#E6E6E6"/>
<path d="M624.577 61.8087C624.577 61.8087 636.177 39.3742 627.891 29.8827C619.605 20.3912 614.22 11.3312 604.277 16.5084C594.334 21.6855 572.376 35.9228 580.662 39.3742C588.948 42.8257 596.405 41.9628 596.405 41.9628C596.405 41.9628 595.1 48.4108 599.481 50.7954C603.862 53.1801 606.762 57.0629 606.762 57.0629C606.762 57.0629 611.734 51.0229 614.22 54.4744C616.705 57.9258 624.577 61.8087 624.577 61.8087Z" fill="#2F2E41"/>
<path d="M567.819 65.6915L543.79 80.3602C543.79 80.3602 538.616 90.5039 552.596 97.2965L578.176 79.0659L585.123 85.4372L594.334 79.4973L587.705 57.9258L580.248 51.8857L573.619 52.7486L568.648 49.2971L558.705 60.5143L567.819 65.6915Z" fill="#2F2E41"/>
<path d="M574.026 71.5183C572.49 65.7815 568.402 61.9568 564.897 62.9756C561.391 63.9943 559.795 69.47 561.333 75.2086C561.917 77.5097 563.021 79.6317 564.554 81.3971L571.358 105.618L582.205 102.051L574.346 78.552C574.78 76.2144 574.671 73.8026 574.026 71.5183Z" fill="#FFB6B6"/>
<path d="M628.995 86.3768L593.86 113.767L576.189 85.0544L564.521 84.8508C564.521 84.8508 566.097 132.586 582.375 136.618C598.652 140.651 643.354 118.031 644.903 104.004C646.451 89.9769 628.995 86.3768 628.995 86.3768Z" fill="#E6E6E6"/>
<path d="M126.318 259.365C126.318 262.089 119.967 208 119.967 208L73.7558 213.834C65.4135 214.888 59.6759 223.085 61.2648 231.68L69.9072 278.433C70.6512 279.373 71.7968 280.259 73.2694 281.09V387H79.6204V283.724C84.7318 285.344 91.332 286.601 98.6732 287.416V387H105.024V287.998C115.764 288.777 127.528 288.647 138.273 287.385V387H144.624V286.481C146.547 286.157 148.42 285.793 150.228 285.385V387H156.579V283.685C160.033 282.593 163.128 281.301 165.732 279.795C189.267 266.175 126.318 256.641 126.318 259.365Z" fill="#E6E6E6"/>
<path d="M173.343 359L181.179 367.129L192 372.935L190.881 383L170.358 380.677L167.746 375.258L168.493 370.613L167 363.258L173.343 359Z" fill="#FFB6B6"/>
<path d="M188.792 378.464L189.438 370L211.736 380.766C211.736 380.766 213.463 385.753 208.086 386.521C202.709 387.288 166.977 387.288 166.977 385.37C166.977 383.451 166 373.631 166 373.631L187.664 379.999L188.792 378.464Z" fill="#2F2E41"/>
<path d="M145 336.355L139.329 346.279L136.564 358.644L126.88 360L124 338.696L128.423 334.719L132.95 334.325L139.458 331L145 336.355Z" fill="#FFB6B6"/>
<path d="M129.95 357.314L138 355.835L133.342 381.144C133.342 381.144 129.107 384.151 127.093 378.896C125.08 373.641 116.454 337.433 118.243 336.95C120.032 336.466 128.955 333 128.955 333L128.246 356.558L129.95 357.314Z" fill="#2F2E41"/>
<path d="M120.125 151L119 174.613L137 175V154.687L120.125 151Z" fill="#FFB6B6"/>
<path opacity="0.1" d="M120.125 151L119 174.613L137 175V154.687L120.125 151Z" fill="black"/>
<path d="M90.4052 249C90.4052 249 82.2137 271.198 88.1711 280.155C94.1285 289.112 122.054 294.175 122.054 294.175L133.596 305.469L164.128 367L182 362.716L156.681 299.627C156.681 299.627 141.788 274.314 136.203 270.809C130.618 267.304 120.218 254.144 120.218 254.144L90.4052 249Z" fill="#2F2E41"/>
<path d="M140.728 251L152.363 259.412C152.363 259.412 193.607 270.665 180.387 296.886C167.167 323.106 147.526 342 147.526 342L130.152 331.975L158.102 291.873L109 261.411L140.728 251Z" fill="#2F2E41"/>
<path d="M245.366 218.416C250.784 219.573 254.613 223.481 253.919 227.142C253.224 230.804 248.27 232.833 242.851 231.674C240.68 231.243 238.638 230.265 236.896 228.824L214 223.611L215.964 214L238.835 218.597C240.967 217.983 243.207 217.921 245.366 218.416Z" fill="#FFB6B6"/>
<path d="M135.821 166H112.572L95.4713 178.049L96.9657 225.466C96.9657 225.466 100.09 237.373 89.4935 248.397C83.1422 255.004 85.3838 258.891 85.3838 258.891L123.118 262L145.722 255.198L137.502 233.822L138.997 227.215C138.997 227.215 154.315 215.943 151.7 204.283C149.084 192.623 145.722 168.526 145.722 168.526L135.821 166Z" fill="#00C941"/>
<path d="M191.011 206.085L145.77 169C145.77 169 136.962 171.448 138.102 179.94C139.241 188.433 159.322 209.914 159.322 209.914L193.844 225.934L233.372 228L235 216.177L191.011 206.085Z" fill="#00C941"/>
<path d="M131 162C139.837 162 147 154.613 147 145.5C147 136.387 139.837 129 131 129C122.163 129 115 136.387 115 145.5C115 154.613 122.163 162 131 162Z" fill="#FFB6B6"/>
<path d="M126.713 148.858C126.713 148.858 134.309 141.491 137.348 138.001C140.386 134.512 153.301 143.43 150.642 136.838C147.983 130.246 144.185 128.695 144.185 128.695C144.185 128.695 137.348 114.737 124.054 122.879C124.054 122.879 124.054 114.349 113.419 117.839C102.784 121.328 97.846 153.511 100.885 156.613C103.923 159.715 106.962 162.042 104.683 167.858C102.404 173.674 104.683 199.653 113.039 203.143C121.395 206.632 122.915 209.099 120.636 214.651C118.357 220.204 112.659 232.611 123.294 229.509C133.929 226.408 122.535 230.285 127.093 220.204C131.65 210.122 142.665 205.469 133.929 196.551C125.193 187.633 125.573 169.021 123.674 167.082C121.775 165.144 118.198 148.997 118.198 148.997C118.198 148.997 124.434 144.981 126.713 148.858Z" fill="#2F2E41"/>
<path d="M635.293 388H8V387H635.293C635.683 387 636 387.224 636 387.5C636 387.776 635.683 388 635.293 388Z" fill="#3F3D56"/>
<path d="M309.311 386.78H168.017C158.667 386.78 151.062 378.86 151.062 369.122V159.419C151.062 149.681 158.667 141.761 168.017 141.761H309.311C318.66 141.761 326.266 149.681 326.266 159.419V369.122C326.266 378.86 318.66 386.78 309.311 386.78Z" fill="white"/>
<path d="M309.31 388.9H168.017C157.545 388.9 149.026 380.028 149.026 369.123V159.419C149.026 148.513 157.545 139.641 168.017 139.641H309.31C319.782 139.641 328.302 148.513 328.302 159.419V369.123C328.302 380.028 319.782 388.9 309.31 388.9ZM168.017 141.113C158.325 141.113 150.44 149.325 150.44 159.419V369.123C150.44 379.216 158.325 387.428 168.017 387.428H309.31C319.002 387.428 326.887 379.216 326.887 369.123V159.419C326.887 149.325 319.002 141.113 309.31 141.113H168.017Z" fill="#3F3D56"/>
<path d="M183.012 221.705L293.465 218.227C301.136 217.986 301.872 205.49 294.131 205.734L183.679 209.211C176.007 209.452 175.271 221.948 183.012 221.705Z" fill="#00C941"/>
<path d="M183.012 263.415L293.465 259.937C301.136 259.696 301.872 247.2 294.131 247.444L183.679 250.921C176.007 251.162 175.271 263.658 183.012 263.415Z" fill="#00C941"/>
<path d="M183.012 305.125L293.465 301.647C301.136 301.406 301.872 288.91 294.131 289.154L183.679 292.631C176.007 292.872 175.271 305.368 183.012 305.125Z" fill="#00C941"/>
<path d="M159.007 279.439C162.967 283.491 164.188 288.923 161.734 291.571C159.28 294.219 154.081 293.081 150.12 289.027C148.517 287.431 147.3 285.454 146.573 283.262L130 265.871L136.56 259L153.427 275.864C155.532 276.57 157.445 277.796 159.007 279.439Z" fill="#FFB6B6"/>
<path d="M119.974 235.977L102.947 178.612C102.947 178.612 94.2449 175.512 90.4613 183.264C86.6776 191.016 91.437 220.667 91.437 220.667L111.271 254.194L143.054 279L151 270.085L119.974 235.977Z" fill="#00C941"/>
<defs>
<clipPath id="clip0_279_138">
<rect width="525" height="377" fill="white" transform="translate(64 70)"/>
</clipPath>
</defs>
</svg>
